<svg xmlns="http://www.w3.org/2000/svg" viewBox="0 0 100 100">
  <defs>
    <linearGradient id="grad" x1="0%" y1="0%" x2="100%" y2="100%">
      <stop offset="0%" style="stop-color:#6366f1"/>
      <stop offset="100%" style="stop-color:#9333ea"/>
    </linearGradient>
  </defs>
  <rect width="100" height="100" rx="20" fill="url(#grad)"/>
  <path d="M50 25 C35 25 25 35 25 50 C25 65 35 75 50 75 C52 75 54 74.8 56 74.5 L56 68 C54 68.5 52 68.7 50 68.7 C39 68.7 31.3 61 31.3 50 C31.3 39 39 31.3 50 31.3 C61 31.3 68.7 39 68.7 50 L68.7 53 C68.7 55.5 66.7 57.5 64.2 57.5 C61.7 57.5 59.7 55.5 59.7 53 L59.7 42 L53 42 L53 44 C51.5 42.7 49.5 42 47 42 C41.5 42 37 46.5 37 52 C37 57.5 41.5 62 47 62 C50 62 52.7 60.7 54.5 58.5 C56 60.7 58.5 62 61.5 62 C67 62 71.5 57.5 71.5 52 L71.5 50 C71.5 35 61.5 25 50 25 Z M47 56 C44.8 56 43 54.2 43 52 C43 49.8 44.8 48 47 48 C49.2 48 51 49.8 51 52 C51 54.2 49.2 56 47 56 Z" fill="white"/>
</svg>
